<svg width="355" height="434" viewBox="0 0 355 434" fill="none" xmlns="http://www.w3.org/2000/svg">
<rect width="355" height="434" fill="white"/>
<path fill-rule="evenodd" clip-rule="evenodd" d="M49.5778 90.6565H164.149L276.894 90.6565C302.251 173.57 198.904 201.335 184.978 201.335C173.837 201.335 170.779 212.676 170.642 218.346V377.917C170.642 388.772 186.07 394.05 193.784 395.333L236.586 404.85C243.631 411.168 238.557 415.199 235.139 416.424H164.149H162.322H91.3328C87.9148 415.199 82.8401 411.168 89.8851 404.85L132.687 395.333C140.401 394.05 155.829 388.772 155.829 377.917V218.346C155.693 212.676 152.634 201.335 141.494 201.335C127.567 201.335 24.2206 173.57 49.5778 90.6565Z" fill="#D9D9D9" fill-opacity="0.7"/>
<path fill-rule="evenodd" clip-rule="evenodd" d="M139.602 201.221C122.433 199.453 46.5622 176.931 45.5996 116.884H280.871C279.866 179.535 197.317 201.335 184.977 201.335C182.949 201.335 181.189 201.711 179.665 202.36L139.602 201.221Z" fill="#E0DE7C"/>
</svg>
