<svg width="355" height="435" viewBox="0 0 355 435" fill="none" xmlns="http://www.w3.org/2000/svg">
<rect width="355" height="434" transform="translate(0 0.727783)" fill="white"/>
<path fill-rule="evenodd" clip-rule="evenodd" d="M74.4854 91.3843H176.378H178.622H280.515C254.543 127.013 230.863 154.502 214.333 173.69C202.104 187.886 193.788 197.54 191.352 202.586C186.161 213.344 186.161 216.206 186.161 224.077V349.659C186.161 360.513 200.126 365.792 207.84 367.074L250.642 377.904C250.642 377.904 252.613 381.984 249.195 383.209H178.622H176.378H105.805C102.387 381.984 104.358 377.904 104.358 377.904L147.16 367.074C154.874 365.792 168.839 360.513 168.839 349.659V224.077C168.839 216.206 168.839 213.344 163.648 202.586C161.212 197.54 152.896 187.886 140.667 173.69C124.137 154.502 100.457 127.013 74.4854 91.3843Z" fill="#D9D9D9" fill-opacity="0.7"/>
<path d="M261.643 116.552H93.625L124.509 154.569L157.377 192.962L197.12 193.911L229.671 155.887L261.643 116.552Z" fill="#D5D5D5" fill-opacity="0.8" style="mix-blend-mode:multiply"/>
</svg>
