<svg width="355" height="434" viewBox="0 0 355 434" fill="none" xmlns="http://www.w3.org/2000/svg">
<rect width="355" height="434" fill="white"/>
<path d="M28.9316 82.488C39.8376 72.4616 64.077 52.7254 73.7868 53.9919C83.4967 55.2583 102.72 65.2696 111.118 70.1169C113.604 71.6934 119.668 77.2111 124.033 86.6699C128.399 96.1288 131.673 105.527 132.765 109.044L146.771 102.313C147.984 101.586 151.246 100.567 154.593 102.313C158.777 104.496 176.239 117.593 188.426 113.773L193.338 117.593C185.031 123.717 163.761 133.273 145.134 122.504C134.909 116.593 130.356 113.81 128.729 112.692C120.653 116.421 103.075 113.687 94.2016 73.7549L60.0328 99.1436C55.2227 98.49 42.2684 94.2437 28.9316 82.488Z" fill="#F8C132"/>
<path fill-rule="evenodd" clip-rule="evenodd" d="M74.4854 90.6565H176.378H178.622H280.515C254.543 126.285 230.863 153.774 214.333 172.962C202.104 187.159 193.788 196.812 191.352 201.858C186.161 212.616 186.161 215.479 186.161 223.349V348.931C186.161 359.786 200.126 365.064 207.84 366.347L250.642 377.177C250.642 377.177 252.613 381.256 249.195 382.482H178.622H176.378H105.805C102.387 381.256 104.358 377.177 104.358 377.177L147.16 366.347C154.874 365.064 168.839 359.786 168.839 348.931V223.349C168.839 215.479 168.839 212.616 163.648 201.858C161.212 196.812 152.896 187.159 140.667 172.962C124.137 153.774 100.457 126.285 74.4854 90.6565Z" fill="#D9D9D9" fill-opacity="0.7"/>
<path d="M261.643 115.824H93.625L124.509 153.841L157.377 192.234L197.12 193.183L229.671 155.159L261.643 115.824Z" fill="#D5D5D5" fill-opacity="0.8" style="mix-blend-mode:multiply"/>
</svg>
