<svg width="356" height="434" viewBox="0 0 356 434" fill="none" xmlns="http://www.w3.org/2000/svg">
<rect width="355" height="434" transform="translate(0.0419922)" fill="white"/>
<path fill-rule="evenodd" clip-rule="evenodd" d="M56.2676 138.379H162.45H162.855H269.037L267.967 351.916C267.967 370.154 262.687 381.104 260.048 384.3C237.577 404.217 186.166 409.283 162.855 409.341V409.341C162.787 409.341 162.72 409.341 162.652 409.341C162.584 409.341 162.517 409.341 162.45 409.341V409.341C139.139 409.283 87.7274 404.217 65.2569 384.3C62.6172 381.104 57.3378 370.154 57.3378 351.916L56.2676 138.379Z" fill="#E4E4E4" fill-opacity="0.7"/>
<path fill-rule="evenodd" clip-rule="evenodd" d="M56.2676 172.858H162.855V172.866H269.121L267.967 285.228C267.967 309.51 262.687 324.088 260.048 328.343C237.577 354.86 186.166 361.604 162.855 361.682V361.682C162.803 361.682 162.75 361.682 162.698 361.682C162.615 361.682 162.532 361.682 162.45 361.682V361.681C139.139 361.604 87.7275 354.86 65.2569 328.342C62.6172 324.088 57.3378 309.51 57.3378 285.228L56.2676 172.858Z" fill="#7C3D45"/>
<rect x="252" y="300.52" width="47.7845" height="47.7845" rx="5" transform="rotate(105.223 252 300.52)" fill="white" fill-opacity="0.7"/>
<rect x="166.845" y="290.801" width="47.7845" height="47.7845" rx="5" transform="rotate(56.319 166.845 290.801)" fill="white" fill-opacity="0.7"/>
<rect x="127.082" y="290.801" width="47.7845" height="47.7845" rx="5" transform="rotate(98.3181 127.082 290.801)" fill="white" fill-opacity="0.7"/>
<rect x="99.9849" y="218.777" width="47.7845" height="47.7845" rx="5" transform="rotate(60.5285 99.9849 218.777)" fill="white" fill-opacity="0.7"/>
<rect x="166.129" y="243.029" width="47.7845" height="47.7845" rx="5" transform="rotate(79.9754 166.129 243.029)" fill="white" fill-opacity="0.7"/>
<rect x="187.008" y="190.554" width="47.7845" height="47.7845" rx="5" transform="rotate(79.9754 187.008 190.554)" fill="white" fill-opacity="0.7"/>
<rect x="206.856" y="237.609" width="47.7845" height="47.7845" rx="5" transform="rotate(56.5333 206.856 237.609)" fill="white" fill-opacity="0.7"/>
<rect x="265.918" y="210.882" width="47.7845" height="47.7845" rx="5" transform="rotate(98.2322 265.918 210.882)" fill="white" fill-opacity="0.7"/>
</svg>
