<svg width="355" height="434" viewBox="0 0 355 434" fill="none" xmlns="http://www.w3.org/2000/svg">
<rect width="355" height="434" fill="white"/>
<path fill-rule="evenodd" clip-rule="evenodd" d="M74.4858 90.6565H176.378H178.623H280.515C254.544 126.285 230.864 153.774 214.333 172.962C202.104 187.159 193.788 196.812 191.353 201.858C186.161 212.616 186.161 215.479 186.161 223.349V348.931C186.161 359.786 200.126 365.064 207.84 366.347L250.643 377.177C250.643 377.177 252.613 381.256 249.195 382.482H178.623H176.378H105.806C102.388 381.256 104.358 377.177 104.358 377.177L147.161 366.347C154.875 365.064 168.84 359.786 168.84 348.931V223.349C168.84 215.479 168.84 212.616 163.648 201.858C161.213 196.812 152.897 187.159 140.667 172.962C124.137 153.774 100.457 126.285 74.4858 90.6565Z" fill="#D9D9D9" fill-opacity="0.7"/>
<path d="M261.643 115.824H93.625L124.509 153.841L157.377 192.234L197.12 193.183L229.671 155.159L261.643 115.824Z" fill="#D5D5D5" fill-opacity="0.8" style="mix-blend-mode:multiply"/>
</svg>
