<svg width="356" height="434" viewBox="0 0 356 434" fill="none" xmlns="http://www.w3.org/2000/svg">
<rect width="355" height="434" transform="translate(0.520996)" fill="white"/>
<path d="M285.01 172.858L260.535 140.159L261.812 119.204L280.893 111.572C301.904 118.935 313.409 133.176 316.535 139.376C310.896 157.547 293.169 169.269 285.01 172.858Z" fill="#F8C132"/>
<path d="M282.014 111.853C264.531 116.331 259.094 154.229 258.561 172.618H203.659C206.218 109.935 256.962 105.99 282.014 111.853Z" fill="#E2A03E"/>
<path fill-rule="evenodd" clip-rule="evenodd" d="M56.7466 138.379H162.929H163.334H269.516L268.446 351.916C268.446 370.154 263.166 381.104 260.527 384.3C238.056 404.217 186.645 409.283 163.334 409.341V409.341C163.266 409.341 163.199 409.341 163.131 409.341C163.063 409.341 162.996 409.341 162.929 409.341V409.341C139.618 409.283 88.2064 404.217 65.7359 384.3C63.0962 381.104 57.8168 370.154 57.8168 351.916L56.7466 138.379Z" fill="#E4E4E4" fill-opacity="0.7"/>
<path fill-rule="evenodd" clip-rule="evenodd" d="M56.7466 172.858H163.334V172.866H269.6L268.446 285.228C268.446 309.51 263.166 324.088 260.527 328.343C238.056 354.86 186.645 361.604 163.334 361.682V361.682C163.282 361.682 163.229 361.682 163.177 361.682C163.094 361.682 163.011 361.682 162.929 361.682V361.681C139.618 361.604 88.2065 354.86 65.7359 328.342C63.0962 324.088 57.8168 309.51 57.8168 285.228L56.7466 172.858Z" fill="#7C3D45"/>
<rect x="252.479" y="300.52" width="47.7845" height="47.7845" rx="5" transform="rotate(105.223 252.479 300.52)" fill="white" fill-opacity="0.7"/>
<rect x="167.324" y="290.801" width="47.7845" height="47.7845" rx="5" transform="rotate(56.319 167.324 290.801)" fill="white" fill-opacity="0.7"/>
<rect x="127.561" y="290.801" width="47.7845" height="47.7845" rx="5" transform="rotate(98.3181 127.561 290.801)" fill="white" fill-opacity="0.7"/>
<rect x="100.464" y="218.777" width="47.7845" height="47.7845" rx="5" transform="rotate(60.5285 100.464 218.777)" fill="white" fill-opacity="0.7"/>
<rect x="166.608" y="243.029" width="47.7845" height="47.7845" rx="5" transform="rotate(79.9754 166.608 243.029)" fill="white" fill-opacity="0.7"/>
<rect x="187.487" y="190.554" width="47.7845" height="47.7845" rx="5" transform="rotate(79.9754 187.487 190.554)" fill="white" fill-opacity="0.7"/>
<rect x="207.335" y="237.609" width="47.7845" height="47.7845" rx="5" transform="rotate(56.5333 207.335 237.609)" fill="white" fill-opacity="0.7"/>
<rect x="266.397" y="210.882" width="47.7845" height="47.7845" rx="5" transform="rotate(98.2322 266.397 210.882)" fill="white" fill-opacity="0.7"/>
</svg>
