<svg width="356" height="434" viewBox="0 0 356 434" fill="none" xmlns="http://www.w3.org/2000/svg">
<rect width="355" height="434" transform="translate(0.0419922)" fill="white"/>
<path fill-rule="evenodd" clip-rule="evenodd" d="M56.2676 138.379H162.45H162.855H269.037L267.967 351.916C267.967 370.154 262.687 381.104 260.048 384.3C237.577 404.217 186.166 409.283 162.855 409.341V409.341C162.787 409.341 162.72 409.341 162.652 409.341C162.584 409.341 162.517 409.341 162.45 409.341V409.341C139.139 409.283 87.7274 404.217 65.2569 384.3C62.6172 381.104 57.3378 370.154 57.3378 351.916L56.2676 138.379Z" fill="#E4E4E4" fill-opacity="0.7"/>
<path fill-rule="evenodd" clip-rule="evenodd" d="M56.2676 195.098H162.855V195.098H269.12L267.967 285.228C267.967 309.51 262.687 324.088 260.048 328.343C237.577 354.86 186.166 361.604 162.855 361.682V361.682C162.801 361.682 162.747 361.682 162.693 361.682C162.612 361.682 162.531 361.682 162.45 361.682V361.681C139.139 361.604 87.7275 354.86 65.2569 328.342C62.6172 324.088 57.3378 309.51 57.3378 285.228L56.2676 195.098Z" fill="#A53C43"/>
<rect x="160.16" y="176.367" width="75.0136" height="75.0136" rx="5" transform="rotate(82.6361 160.16 176.367)" fill="white" fill-opacity="0.7"/>
<rect x="232.631" y="238.068" width="75.0136" height="75.0136" rx="5" transform="rotate(105.223 232.631 238.068)" fill="white" fill-opacity="0.7"/>
</svg>
