<svg width="355" height="434" viewBox="0 0 355 434" fill="none" xmlns="http://www.w3.org/2000/svg">
<rect width="355" height="434" fill="white"/>
<path d="M257.329 13.1927L173.437 168.12" stroke="#C5854D" stroke-width="2"/>
<ellipse cx="202.132" cy="115.164" rx="15.1437" ry="19.0582" transform="rotate(119.091 202.132 115.164)" fill="#BCB040"/>
<ellipse cx="193.048" cy="108.369" rx="3.23047" ry="2.44455" fill="#887F2D"/>
<ellipse cx="231.999" cy="61.464" rx="15.1437" ry="19.0582" transform="rotate(119.091 231.999 61.464)" fill="#BCB040"/>
<ellipse cx="217.064" cy="88.3143" rx="15.1437" ry="19.0582" transform="rotate(119.091 217.064 88.3143)" fill="#BCB040"/>
<path fill-rule="evenodd" clip-rule="evenodd" d="M74.4854 90.6565H176.378H178.622H280.515C254.543 126.285 230.863 153.774 214.333 172.962C202.104 187.159 193.788 196.812 191.352 201.858C186.161 212.616 186.161 215.479 186.161 223.349V348.931C186.161 359.786 200.126 365.064 207.84 366.347L250.642 377.177C250.642 377.177 252.613 381.256 249.195 382.482H178.622H176.378H105.805C102.387 381.256 104.358 377.177 104.358 377.177L147.16 366.347C154.874 365.064 168.839 359.786 168.839 348.931V223.349C168.839 215.479 168.839 212.616 163.648 201.858C161.212 196.812 152.896 187.159 140.667 172.962C124.137 153.774 100.457 126.285 74.4854 90.6565Z" fill="#D9D9D9" fill-opacity="0.7"/>
<path d="M261.643 115.824H93.625L124.509 153.841L157.377 192.234L197.12 193.183L229.671 155.159L261.643 115.824Z" fill="#D5D5D5" fill-opacity="0.8" style="mix-blend-mode:multiply"/>
<ellipse cx="222.918" cy="54.5738" rx="3.23047" ry="2.44455" fill="#887F2D"/>
<ellipse cx="207.982" cy="81.5188" rx="3.23047" ry="2.44455" fill="#887F2D"/>
</svg>
