<svg width="355" height="435" viewBox="0 0 355 435" fill="none" xmlns="http://www.w3.org/2000/svg">
<rect width="355" height="434" transform="translate(0 0.800781)" fill="white"/>
<path d="M45.5908 72.793C56.4968 62.7666 80.7362 43.0304 90.446 44.2969C100.156 45.5634 119.379 55.5746 127.778 60.422C130.264 61.9984 136.327 67.5161 140.693 76.975C145.058 86.4338 148.332 95.8321 149.424 99.3488L163.43 92.6185C164.643 91.8909 167.905 90.8722 171.252 92.6185C175.436 94.8013 192.898 107.898 205.086 104.078L209.997 107.898C201.69 114.022 180.42 123.578 161.793 112.81C151.568 106.898 147.015 104.115 145.388 102.997C137.313 106.726 119.735 103.992 110.861 64.06L76.6919 89.4487C71.8819 88.795 58.9276 84.5488 45.5908 72.793Z" fill="#F8C132"/>
<path fill-rule="evenodd" clip-rule="evenodd" d="M49.5778 91.4573H164.149L276.894 91.4573C302.251 174.371 198.904 202.136 184.978 202.136C173.837 202.136 170.779 213.476 170.642 219.146V378.718C170.642 389.572 186.07 394.851 193.784 396.133L236.586 405.651C243.631 411.969 238.557 415.999 235.139 417.225H164.149H162.322H91.3328C87.9148 415.999 82.8401 411.969 89.8851 405.651L132.687 396.133C140.401 394.851 155.829 389.572 155.829 378.718V219.146C155.693 213.476 152.634 202.136 141.494 202.136C127.567 202.136 24.2206 174.371 49.5778 91.4573Z" fill="#D9D9D9" fill-opacity="0.7"/>
<path fill-rule="evenodd" clip-rule="evenodd" d="M139.602 202.022C122.433 200.253 46.5622 177.732 45.5996 117.684H280.871C279.866 180.336 197.317 202.136 184.977 202.136C182.949 202.136 181.189 202.512 179.665 203.161L139.602 202.022Z" fill="#A585AA"/>
</svg>
