<svg width="355" height="434" viewBox="0 0 355 434" fill="none" xmlns="http://www.w3.org/2000/svg">
<rect width="355" height="434" fill="white"/>
<path d="M204.713 127.886C207.67 128.585 209.638 131.385 209.294 134.404L209.017 136.832C208.783 138.884 209.622 140.912 211.236 142.201L213.489 143.999C216.024 146.022 216.493 149.693 214.547 152.288L214.258 152.673C212.848 154.553 212.666 157.083 213.791 159.145L214.872 161.129C216.406 163.941 215.06 167.458 212.04 168.527V168.527C209.811 169.316 208.394 171.51 208.592 173.867L208.649 174.553C208.935 177.966 205.819 180.692 202.459 180.024V180.024C200.124 179.56 197.75 180.785 196.81 182.973V182.973C195.52 185.972 191.763 186.975 189.15 185.017L187.895 184.077C185.979 182.641 183.364 182.572 181.375 183.906V183.906C178.675 185.716 175.007 184.874 173.368 182.066L172 179.724C170.902 177.844 168.871 176.706 166.694 176.751L165.113 176.784C162.022 176.849 159.387 174.553 159.029 171.482L158.691 168.589C158.455 166.576 157.22 164.818 155.405 163.914L152.798 162.617C150.03 161.238 148.763 157.982 149.871 155.095L150.437 153.62C151.218 151.586 150.835 149.29 149.438 147.62L147.698 145.54C145.612 143.046 146.062 139.309 148.68 137.382V137.382C150.609 135.963 151.43 133.479 150.728 131.19L150.269 129.691C149.312 126.569 151.528 123.374 154.787 123.177V123.177C157.164 123.033 159.121 121.215 159.476 118.86V118.86C159.985 115.473 163.606 113.465 166.72 114.89L167.346 115.177C169.496 116.161 172.04 115.571 173.539 113.741V113.741C175.568 111.263 179.332 111.187 181.459 113.583L182.958 115.273C184.518 117.03 186.96 117.715 189.206 117.026L189.667 116.884C192.767 115.933 196.063 117.618 197.107 120.688L198.036 123.417C198.701 125.372 200.325 126.848 202.335 127.324L204.713 127.886Z" fill="#332E3A"/>
<path d="M142.403 171.827C143.668 174.59 142.667 177.862 140.074 179.445L137.988 180.718C136.225 181.794 135.139 183.701 135.114 185.767L135.079 188.649C135.04 191.892 132.431 194.517 129.188 194.575L128.706 194.584C126.357 194.627 124.249 196.036 123.312 198.191L122.411 200.263C121.134 203.2 117.532 204.298 114.834 202.572V202.572C112.841 201.298 110.24 201.527 108.501 203.131L107.995 203.597C105.477 205.919 101.412 205.135 99.8759 202.073V202.073C98.8079 199.945 96.3828 198.825 94.0788 199.426V199.426C90.9194 200.251 87.8209 197.902 87.761 194.638L87.7322 193.07C87.6883 190.676 86.1364 188.57 83.8623 187.82V187.82C80.7749 186.801 79.1869 183.389 80.3952 180.371L81.4032 177.854C82.2126 175.832 81.863 173.53 80.4897 171.84L79.493 170.613C77.543 168.213 77.7364 164.724 79.9397 162.555L82.0147 160.511C83.4589 159.089 84.0874 157.034 83.6857 155.047L83.1086 152.193C82.4958 149.162 84.287 146.161 87.2458 145.263L88.7582 144.803C90.842 144.17 92.4192 142.458 92.879 140.329L93.4517 137.679C94.1382 134.501 97.363 132.561 100.492 133.443V133.443C102.797 134.093 105.261 133.216 106.637 131.256L107.537 129.972C109.413 127.3 113.295 127.086 115.453 129.537V129.537C117.026 131.324 119.663 131.752 121.739 130.585V130.585C124.725 128.907 128.533 130.53 129.322 133.863L129.48 134.533C130.024 136.835 132.052 138.48 134.417 138.538V138.538C137.619 138.617 139.991 141.541 139.406 144.691L138.994 146.912C138.566 149.222 139.525 151.57 141.448 152.919L141.843 153.196C144.498 155.058 145.193 158.693 143.412 161.403L141.828 163.812C140.694 165.538 140.527 167.727 141.387 169.605L142.403 171.827Z" fill="#332E3A"/>
<path fill-rule="evenodd" clip-rule="evenodd" d="M56.2256 138.379H162.408H162.813H268.995L267.925 351.916C267.925 370.154 262.645 381.104 260.006 384.3C237.535 404.217 186.124 409.283 162.813 409.341V409.341C162.745 409.341 162.678 409.341 162.61 409.341C162.542 409.341 162.475 409.341 162.408 409.341V409.341C139.097 409.283 87.6854 404.217 65.2149 384.3C62.5752 381.104 57.2959 370.154 57.2959 351.916L56.2256 138.379Z" fill="#E4E4E4" fill-opacity="0.7"/>
<path fill-rule="evenodd" clip-rule="evenodd" d="M56.2256 172.858H162.813V172.866H269.079L267.925 285.228C267.925 309.51 262.645 324.088 260.006 328.343C237.535 354.86 186.124 361.604 162.813 361.682V361.682C162.761 361.682 162.708 361.682 162.656 361.682C162.573 361.682 162.49 361.682 162.408 361.682V361.681C139.097 361.604 87.6855 354.86 65.2149 328.342C62.5752 324.088 57.2959 309.51 57.2959 285.228L56.2256 172.858Z" fill="#7C3D45"/>
<rect x="251.958" y="300.52" width="47.7845" height="47.7845" rx="5" transform="rotate(105.223 251.958 300.52)" fill="white" fill-opacity="0.7"/>
<rect x="166.803" y="290.801" width="47.7845" height="47.7845" rx="5" transform="rotate(56.319 166.803 290.801)" fill="white" fill-opacity="0.7"/>
<rect x="127.04" y="290.801" width="47.7845" height="47.7845" rx="5" transform="rotate(98.3181 127.04 290.801)" fill="white" fill-opacity="0.7"/>
<rect x="99.9429" y="218.777" width="47.7845" height="47.7845" rx="5" transform="rotate(60.5285 99.9429 218.777)" fill="white" fill-opacity="0.7"/>
<rect x="166.087" y="243.029" width="47.7845" height="47.7845" rx="5" transform="rotate(79.9754 166.087 243.029)" fill="white" fill-opacity="0.7"/>
<rect x="186.966" y="190.554" width="47.7845" height="47.7845" rx="5" transform="rotate(79.9754 186.966 190.554)" fill="white" fill-opacity="0.7"/>
<rect x="206.814" y="237.609" width="47.7845" height="47.7845" rx="5" transform="rotate(56.5333 206.814 237.609)" fill="white" fill-opacity="0.7"/>
<rect x="265.876" y="210.882" width="47.7845" height="47.7845" rx="5" transform="rotate(98.2322 265.876 210.882)" fill="white" fill-opacity="0.7"/>
</svg>
