<svg width="356" height="434" viewBox="0 0 356 434" fill="none" xmlns="http://www.w3.org/2000/svg">
<rect width="355" height="434" transform="translate(0.0419922)" fill="white"/>
<path d="M284.531 172.858L260.056 140.159L261.333 119.204L280.414 111.572C301.425 118.935 312.93 133.176 316.056 139.376C310.417 157.547 292.69 169.269 284.531 172.858Z" fill="#F8C132"/>
<path d="M281.535 111.853C264.052 116.331 258.615 154.229 258.082 172.618H203.18C205.739 109.935 256.483 105.99 281.535 111.853Z" fill="#E2A03E"/>
<path d="M204.755 127.886C207.712 128.585 209.68 131.385 209.336 134.404L209.059 136.832C208.825 138.884 209.664 140.912 211.278 142.201L213.531 143.999C216.066 146.022 216.535 149.693 214.589 152.288L214.3 152.673C212.89 154.553 212.708 157.083 213.833 159.145L214.914 161.129C216.448 163.941 215.102 167.458 212.082 168.527V168.527C209.853 169.316 208.436 171.51 208.633 173.867L208.691 174.553C208.977 177.966 205.861 180.692 202.501 180.024V180.024C200.166 179.56 197.792 180.785 196.852 182.973V182.973C195.562 185.972 191.805 186.975 189.192 185.017L187.937 184.077C186.021 182.641 183.406 182.572 181.417 183.906V183.906C178.717 185.716 175.049 184.874 173.41 182.066L172.042 179.724C170.944 177.844 168.913 176.706 166.736 176.751L165.155 176.784C162.064 176.849 159.429 174.553 159.071 171.482L158.733 168.589C158.497 166.576 157.262 164.818 155.447 163.914L152.84 162.617C150.072 161.238 148.805 157.982 149.913 155.095L150.479 153.62C151.26 151.586 150.877 149.29 149.48 147.62L147.74 145.54C145.654 143.046 146.104 139.309 148.722 137.382V137.382C150.651 135.963 151.472 133.479 150.77 131.19L150.311 129.691C149.354 126.569 151.57 123.374 154.829 123.177V123.177C157.206 123.033 159.163 121.215 159.518 118.86V118.86C160.027 115.473 163.648 113.465 166.762 114.89L167.388 115.177C169.538 116.161 172.082 115.571 173.581 113.741V113.741C175.61 111.263 179.374 111.187 181.501 113.583L183 115.273C184.56 117.03 187.002 117.715 189.248 117.026L189.709 116.884C192.809 115.933 196.105 117.618 197.149 120.688L198.078 123.417C198.743 125.372 200.367 126.848 202.377 127.324L204.755 127.886Z" fill="#332E3A"/>
<path d="M142.445 171.827C143.71 174.59 142.709 177.862 140.116 179.445L138.03 180.718C136.267 181.794 135.181 183.701 135.156 185.767L135.121 188.649C135.082 191.892 132.473 194.517 129.23 194.575L128.748 194.584C126.399 194.627 124.291 196.036 123.354 198.191L122.453 200.263C121.176 203.2 117.574 204.298 114.876 202.572V202.572C112.883 201.298 110.282 201.527 108.543 203.131L108.037 203.597C105.519 205.919 101.454 205.135 99.9179 202.073V202.073C98.8498 199.945 96.4248 198.825 94.1208 199.426V199.426C90.9614 200.251 87.8628 197.902 87.8029 194.638L87.7742 193.07C87.7302 190.676 86.1784 188.57 83.9042 187.82V187.82C80.8169 186.801 79.2289 183.389 80.4372 180.371L81.4452 177.854C82.2546 175.832 81.905 173.53 80.5317 171.84L79.5349 170.613C77.585 168.213 77.7784 164.724 79.9817 162.555L82.0567 160.511C83.5009 159.089 84.1294 157.034 83.7277 155.047L83.1506 152.193C82.5378 149.162 84.329 146.161 87.2878 145.263L88.8002 144.803C90.8839 144.17 92.4612 142.458 92.921 140.329L93.4937 137.679C94.1802 134.501 97.405 132.561 100.534 133.443V133.443C102.839 134.093 105.303 133.216 106.679 131.256L107.579 129.972C109.455 127.3 113.337 127.086 115.495 129.537V129.537C117.068 131.324 119.705 131.752 121.781 130.585V130.585C124.767 128.907 128.575 130.53 129.364 133.863L129.522 134.533C130.066 136.835 132.094 138.48 134.459 138.538V138.538C137.661 138.617 140.033 141.541 139.448 144.691L139.036 146.912C138.608 149.222 139.567 151.57 141.49 152.919L141.885 153.196C144.54 155.058 145.235 158.693 143.454 161.403L141.87 163.812C140.736 165.538 140.569 167.727 141.429 169.605L142.445 171.827Z" fill="#332E3A"/>
<path fill-rule="evenodd" clip-rule="evenodd" d="M56.2676 138.379H162.45H162.855H269.037L267.967 351.916C267.967 370.154 262.687 381.104 260.048 384.3C237.577 404.217 186.166 409.283 162.855 409.341V409.341C162.787 409.341 162.72 409.341 162.652 409.341C162.584 409.341 162.517 409.341 162.45 409.341V409.341C139.139 409.283 87.7274 404.217 65.2569 384.3C62.6172 381.104 57.3378 370.154 57.3378 351.916L56.2676 138.379Z" fill="#E4E4E4" fill-opacity="0.7"/>
<path fill-rule="evenodd" clip-rule="evenodd" d="M56.2676 172.858H162.855V172.866H269.121L267.967 285.228C267.967 309.51 262.687 324.088 260.048 328.343C237.577 354.86 186.166 361.604 162.855 361.682V361.682C162.803 361.682 162.75 361.682 162.698 361.682C162.615 361.682 162.532 361.682 162.45 361.682V361.681C139.139 361.604 87.7275 354.86 65.2569 328.342C62.6172 324.088 57.3378 309.51 57.3378 285.228L56.2676 172.858Z" fill="#7C3D45"/>
<rect x="252" y="300.52" width="47.7845" height="47.7845" rx="5" transform="rotate(105.223 252 300.52)" fill="white" fill-opacity="0.7"/>
<rect x="166.845" y="290.801" width="47.7845" height="47.7845" rx="5" transform="rotate(56.319 166.845 290.801)" fill="white" fill-opacity="0.7"/>
<rect x="127.082" y="290.801" width="47.7845" height="47.7845" rx="5" transform="rotate(98.3181 127.082 290.801)" fill="white" fill-opacity="0.7"/>
<rect x="99.9849" y="218.777" width="47.7845" height="47.7845" rx="5" transform="rotate(60.5285 99.9849 218.777)" fill="white" fill-opacity="0.7"/>
<rect x="166.129" y="243.029" width="47.7845" height="47.7845" rx="5" transform="rotate(79.9754 166.129 243.029)" fill="white" fill-opacity="0.7"/>
<rect x="187.008" y="190.554" width="47.7845" height="47.7845" rx="5" transform="rotate(79.9754 187.008 190.554)" fill="white" fill-opacity="0.7"/>
<rect x="206.856" y="237.609" width="47.7845" height="47.7845" rx="5" transform="rotate(56.5333 206.856 237.609)" fill="white" fill-opacity="0.7"/>
<rect x="265.918" y="210.882" width="47.7845" height="47.7845" rx="5" transform="rotate(98.2322 265.918 210.882)" fill="white" fill-opacity="0.7"/>
</svg>
