<svg width="355" height="435" viewBox="0 0 355 435" fill="none" xmlns="http://www.w3.org/2000/svg">
<rect width="355" height="434" transform="translate(0 0.455811)" fill="white"/>
<path d="M170.631 78.9031L140.428 80.2686C146.643 89.1383 162.556 109.057 176.492 117.772C190.428 126.488 211.99 120.061 221.029 115.759C227.991 115.444 236.825 98.3004 240.372 89.7681L254.946 37.7091C244.109 33.9937 228.248 37.1639 221.672 39.2135C214.695 75.509 202.391 100.636 197.112 108.663L170.631 78.9031Z" fill="#EA8339"/>
<path fill-rule="evenodd" clip-rule="evenodd" d="M49.5778 91.1123H164.149L276.894 91.1123C302.251 174.026 198.904 201.791 184.978 201.791C173.837 201.791 170.779 213.131 170.642 218.801V378.373C170.642 389.227 186.07 394.506 193.784 395.788L236.586 405.306C243.631 411.624 238.557 415.654 235.139 416.88H164.149H162.322H91.3328C87.9148 415.654 82.8401 411.624 89.8851 405.306L132.687 395.788C140.401 394.506 155.829 389.227 155.829 378.373V218.801C155.693 213.131 152.634 201.791 141.494 201.791C127.567 201.791 24.2206 174.026 49.5778 91.1123Z" fill="#D9D9D9" fill-opacity="0.7"/>
<path fill-rule="evenodd" clip-rule="evenodd" d="M139.602 201.677C122.433 199.908 46.5622 177.387 45.5996 117.339H280.871C279.866 179.991 197.317 201.791 184.977 201.791C182.949 201.791 181.189 202.167 179.665 202.816L139.602 201.677Z" fill="#A53C43"/>
</svg>
