<svg width="355" height="435" viewBox="0 0 355 435" fill="none" xmlns="http://www.w3.org/2000/svg">
<rect width="355" height="434" transform="translate(0 0.800781)" fill="white"/>
<path fill-rule="evenodd" clip-rule="evenodd" d="M49.5778 91.4573H164.149L276.894 91.4573C302.251 174.371 198.904 202.136 184.978 202.136C173.837 202.136 170.779 213.476 170.642 219.146V378.718C170.642 389.572 186.07 394.851 193.784 396.133L236.586 405.651C243.631 411.969 238.557 415.999 235.139 417.225H164.149H162.322H91.3328C87.9148 415.999 82.8401 411.969 89.8851 405.651L132.687 396.133C140.401 394.851 155.829 389.572 155.829 378.718V219.146C155.693 213.476 152.634 202.136 141.494 202.136C127.567 202.136 24.2206 174.371 49.5778 91.4573Z" fill="#D9D9D9" fill-opacity="0.7"/>
<path fill-rule="evenodd" clip-rule="evenodd" d="M139.602 202.022C122.433 200.253 46.5622 177.732 45.5996 117.684H280.871C279.866 180.336 197.317 202.136 184.977 202.136C182.949 202.136 181.189 202.512 179.665 203.161L139.602 202.022Z" fill="#A585AA"/>
</svg>
