<svg width="355" height="434" viewBox="0 0 355 434" fill="none" xmlns="http://www.w3.org/2000/svg">
<rect width="355" height="434" fill="white"/>
<path d="M246.607 389.643V183.273C246.607 168.126 229.939 159.434 220.77 155.877C211.6 152.326 209.494 149.994 205.667 146.33C201.837 142.661 202.76 132.02 202.76 132.02H152.245C152.245 132.02 153.168 142.666 149.337 146.33C145.507 149.999 143.4 152.326 134.235 155.877C125.066 159.429 108.397 168.126 108.397 183.273V389.643C108.397 389.643 105.917 407.027 120.614 407.027H234.386C249.083 407.027 246.603 389.643 246.603 389.643H246.607Z" fill="#CFD1CA"/>
<path d="M232.063 199.455H122.941C120.631 199.455 118.759 201.328 118.759 203.637V341.703C118.759 344.013 120.631 345.885 122.941 345.885H232.063C234.372 345.885 236.245 344.013 236.245 341.703V203.637C236.245 201.328 234.372 199.455 232.063 199.455Z" fill="#F6F2EC"/>
<path d="M202.777 132.02H152.245L152.722 98.0348C152.722 97.8773 152.555 95.6491 152.492 95.5321C151.988 94.6588 150.197 95.0054 149.854 92.1921C149.17 86.6329 149.17 71.1751 149.854 65.6159C150.156 63.1627 151.979 62.1724 154.383 61.7898C169.071 62.8116 185.73 60.4664 200.18 61.7763C203.061 62.0373 204.807 63.1807 205.172 66.0661C205.834 71.3012 205.829 86.5068 205.172 91.7464C204.767 94.9649 202.3 94.4923 202.3 98.0393L202.777 132.025V132.02Z" fill="#BE8A56"/>
<path d="M193.941 250.857L201.589 277.865V250.857H206.991V295.42H200.693L192.145 265.936V295.42H186.298V250.857H193.941Z" fill="black"/>
<path d="M168.302 264.811H162.004C161.797 262.024 163.039 256.501 159.078 256.249C156.922 256.114 155.968 256.456 155.005 258.482C155.266 267.48 153.969 277.802 154.784 286.66C155.072 289.798 158.137 292.481 160.676 289.811C161.032 289.438 162.004 287.007 162.004 286.638V277.86H157.953V272.008H168.302V295.415L164.223 295.222L163.8 293.165C156.873 299.215 149.193 295.974 148.491 286.656C147.96 279.602 147.739 265.126 148.509 258.275C148.91 254.714 151.687 251.316 155.234 250.6C159.803 249.677 165.083 250.289 167.181 254.899C167.37 255.313 168.306 258.099 168.306 258.275V264.802L168.302 264.811Z" fill="black"/>
<path d="M180.445 250.857H174.148V295.42H180.445V250.857Z" fill="black"/>
</svg>
