<svg width="355" height="434" viewBox="0 0 355 434" fill="none" xmlns="http://www.w3.org/2000/svg">
<rect width="355" height="434" fill="white"/>
<path d="M232.253 230.351H122.825C120.509 230.351 118.631 232.229 118.631 234.545V348.893C118.631 351.209 120.509 353.086 122.825 353.086H232.253C234.569 353.086 236.446 351.209 236.446 348.893V234.545C236.446 232.229 234.569 230.351 232.253 230.351Z" fill="#F4E3C5"/>
<path d="M130.842 271.329L132.652 289.837L134.9 271.329L137.803 271.316L140.543 290.297L142.118 271.329L146.628 271.338L143.025 302.48L138.985 302.458L136.48 284.871L134.453 302.48L130.395 302.476L126.324 271.564L130.842 271.329Z" fill="black"/>
<path d="M153.398 271.333V283.521H157.456V271.333H161.519V302.48H157.456V288.035H153.398V302.48H148.884V271.333H153.398Z" fill="black"/>
<path d="M192.643 271.333V282.393C192.643 282.849 191.478 283.341 193.09 283.07L196.764 271.397L201.21 271.338L197.572 281.494L201.671 302.25L197.36 302.051L194.895 288.491C193.722 288.279 194.196 288.649 193.952 289.132C193.744 289.552 192.638 291.723 192.638 291.872V302.48H188.129V271.333H192.638H192.643Z" fill="black"/>
<path d="M184.978 279.008H180.915C181.633 273.252 175.991 273.586 177.525 279.473C178.735 284.113 184.554 288.604 184.996 295.014C185.818 306.918 170.736 304.466 172.795 293.452H176.857C176.754 296.052 177.318 300.697 180.694 297.971C182.884 294.346 174.456 284.939 173.553 281.183C172.844 278.231 172.741 272.408 176.388 271.555C182.522 270.124 185.61 272.715 184.978 279.008Z" fill="black"/>
<path d="M214.748 271.333V275.847H208.433V283.521L212.952 283.783L212.947 288.035H208.433V297.966H214.748V302.48H204.371V271.333H214.748Z" fill="black"/>
<path d="M221.515 288.712L216.554 271.338H221.059L223.546 282.172L226.087 271.392L230.087 271.333L225.573 288.261V302.48H221.515V288.712Z" fill="black"/>
<path d="M169.635 271.333H165.125V302.48H169.635V271.333Z" fill="black"/>
<path d="M248.553 374.505V217.816C248.477 215.798 250.476 214.977 250.806 212.851C251.266 209.849 251.212 199.291 250.797 196.217C249.849 189.243 236.898 184.837 231.134 181.587C226.755 179.113 214.256 172.803 212.311 168.826C209.963 164.023 212.685 156.074 212.961 150.608C213.091 148.007 213.064 145.407 212.906 142.816H142.226C142.05 145.335 141.996 147.827 142.123 150.134C142.434 155.907 145.626 164.831 142.312 169.742C139.839 173.417 126.22 180.395 121.67 182.941C116.149 186.029 105.695 189.243 104.431 195.932C103.492 200.898 103.158 213.754 106.968 217.378L106.959 374.059C106.155 376.817 104.634 378.035 104.282 381.308C103.271 390.697 103.375 405.729 115.711 406.771C123.056 407.394 131.677 406.677 139.202 406.735C167.699 406.956 196.114 406.979 224.877 406.762C233.544 406.699 246.558 409.29 250.07 398.542C251.867 393.04 251.578 379.674 248.553 374.505ZM236.429 233.615L236.167 351.222C235.323 352.224 234.519 353.254 233.048 353.064L120.93 352.802L118.961 350.256L118.641 234.522C118.524 232.699 119.787 231.259 121.236 230.347L234.479 230.595C235.648 231.281 236.6 232.116 236.429 233.611V233.615Z" fill="#98512A"/>
<path d="M210.198 126.245C209.417 123.194 204.867 111.038 206.243 108.898C206.361 108.718 207.453 108.578 207.95 108.131C209.304 106.921 209.661 104.506 209.796 102.75C210.365 95.3923 210.55 80.5819 209.782 73.3911C209.457 70.3442 207.873 68.1594 204.609 68.182C187.339 69.4188 167.902 66.5931 150.893 68.182C147.733 68.4754 146.293 69.7664 145.711 72.9307C146.393 82.8524 144.84 93.8711 145.702 103.653C146.077 107.928 148.383 107.891 148.808 109.124C150.18 113.123 144.668 126.688 143.675 131.829C143.021 135.215 142.483 139.042 142.222 142.803H212.902C212.554 137.205 211.579 131.649 210.198 126.236V126.245Z" fill="#38332E"/>
</svg>
