<svg width="355" height="434" viewBox="0 0 355 434" fill="none" xmlns="http://www.w3.org/2000/svg">
<rect width="355" height="434" fill="white"/>
<path d="M267.25 170.134L242.775 137.435L244.052 116.48L263.133 108.848C284.144 116.211 295.649 130.452 298.774 136.652C293.135 154.823 275.409 166.545 267.25 170.134Z" fill="#F8C132"/>
<path d="M264.253 109.129C246.77 113.607 241.333 151.505 240.8 169.894H185.899C188.457 107.21 239.201 103.266 264.253 109.129Z" fill="#E2A03E"/>
<path fill-rule="evenodd" clip-rule="evenodd" d="M56.2256 138.379H162.408H162.813H268.995L267.925 351.916C267.925 370.154 262.645 381.104 260.006 384.3C237.535 404.217 186.124 409.283 162.813 409.341V409.341C162.745 409.341 162.678 409.341 162.61 409.341C162.542 409.341 162.475 409.341 162.408 409.341V409.341C139.097 409.283 87.6854 404.217 65.2149 384.3C62.5752 381.104 57.2959 370.154 57.2959 351.916L56.2256 138.379Z" fill="#E4E4E4" fill-opacity="0.7"/>
<path fill-rule="evenodd" clip-rule="evenodd" d="M56.2256 195.098H162.813V195.098H269.079L267.925 285.228C267.925 309.51 262.645 324.088 260.006 328.343C237.535 354.86 186.124 361.604 162.813 361.682V361.682C162.759 361.682 162.705 361.682 162.651 361.682C162.57 361.682 162.489 361.682 162.408 361.682V361.681C139.097 361.604 87.6855 354.86 65.2149 328.342C62.5752 324.088 57.2959 309.51 57.2959 285.228L56.2256 195.098Z" fill="#B24C1F"/>
</svg>
