<svg width="16" height="16" viewBox="0 0 16 16" fill="none" xmlns="http://www.w3.org/2000/svg">
<rect width="16" height="16" fill="white"/>
<path fill-rule="evenodd" clip-rule="evenodd" d="M3.11072 1.07471H7.94697H8.0532H12.8895C11.6568 2.7657 10.5329 4.07035 9.74837 4.98107C9.16795 5.65484 8.77326 6.11301 8.65768 6.35251C8.41127 6.8631 8.41127 6.99896 8.41127 7.3725V13.3328C8.41127 13.848 9.07409 14.0985 9.4402 14.1594L11.4717 14.6734C11.4717 14.6734 11.5652 14.867 11.403 14.9252H8.0532H7.94697H4.59722C4.435 14.867 4.52851 14.6734 4.52851 14.6734L6.55997 14.1594C6.92609 14.0985 7.58891 13.848 7.58891 13.3328V7.3725C7.58891 6.99896 7.58891 6.8631 7.3425 6.35251C7.22691 6.11301 6.83222 5.65484 6.2518 4.98108C5.46725 4.07035 4.34335 2.7657 3.11072 1.07471Z" fill="black"/>
</svg>
